<svg xmlns="http://www.w3.org/2000/svg" width="144.149" height="172.504" viewBox="0 0 144.149 172.504">
  <g id="Tresyv_logo" transform="translate(-359.311 -549.35)">
    <g id="Group_6960" data-name="Group 6960">
      <path id="Path_3168" data-name="Path 3168" d="M424.6,580.093l-7.452-.032.108-24.656-7.083-.03.026-6.025,21.572.093-.026,6.026-7.037-.03Z" fill="#fff"/>
      <path id="Path_3169" data-name="Path 3169" d="M448.492,587.505l-6.206-4.126,16.985-25.551,8.275,5.5c3.371,2.24,5.415,4.484,6.235,6.906.846,2.551.314,5.511-1.546,8.308-2.571,3.868-5.95,5.379-10.11,4.491l-.608,13.129-7.432-4.94.977-13.6Zm10.879-12.045c2.566,1.7,4.927,1.395,6.4-.824a4.1,4.1,0,0,0-1.309-6.009l-2.375-1.578-4.712,7.087Z" fill="#fff"/>
      <path id="Path_3170" data-name="Path 3170" d="M488.244,605.848l3.864,9.352-5.569,2.3-3.865-9.355-5.866,2.425,3.864,9.354-5.57,2.3-6.71-16.242,28.358-11.714,6.71,16.24-5.569,2.3-3.865-9.355Z" fill="#fff"/>
      <path id="Path_3171" data-name="Path 3171" d="M459.655,687.388a2.257,2.257,0,0,0-.242-.447c-.843-1.262-2.934-1.415-4.58-.316-1.492.995-2.053,2.642-1.286,3.789.791,1.186,1.837,1.263,5.536.343,6.914-1.739,10.652-.861,13.257,3.042,3.191,4.782,1.816,10.345-3.5,13.894-3.443,2.3-7.245,2.734-10.4,1.244a11.97,11.97,0,0,1-4.071-3.2l6.314-4.213c1.365,1.633,2.781,1.849,4.541.673,1.531-1.02,1.989-2.487,1.171-3.712a2.459,2.459,0,0,0-2.411-1.045,17,17,0,0,0-3.751.678c-3.647.83-5.509,1.024-7.347.756a8.083,8.083,0,0,1-5.564-3.7c-3.166-4.744-1.612-10.371,3.859-14.023,5.586-3.728,11.187-2.875,14.557,2.174Z" fill="#fff"/>
      <path id="Path_3172" data-name="Path 3172" d="M417.13,691.1l7.452-.055.1,13.523,10.2,17.083-8.877.066-5.038-9.393-4.806,9.466-8.74.065,9.808-17.232Z" fill="#fff"/>
      <path id="Path_3173" data-name="Path 3173" d="M365.525,702.107l-6.214-4.518,25.526-19.383,6.55,4.763-10.94,29.988-6.214-4.519,6.807-18.2Z" fill="#fff"/>
    </g>
    <circle id="Ellipse_132" data-name="Ellipse 132" cx="4.875" cy="4.875" r="4.875" transform="translate(486.466 650.305)" fill="#fff"/>
  </g>
</svg>
